<svg width="980" height="710" viewBox="0 0 980 710" fill="none" xmlns="http://www.w3.org/2000/svg">
  <rect width="980" height="710" fill="#f9fafb"/>
  <text x="50" y="60" font-family="Inter, Arial" font-size="38" font-weight="bold" fill="#1e293b">Dashboard</text>
  <text x="51" y="92" font-family="Inter, Arial" font-size="20" fill="#64748b">Visão geral do sistema e métricas em tempo real</text>
  <rect x="50" y="120" width="180" height="90" rx="20" fill="#dbeafe"/>
  <rect x="250" y="120" width="180" height="90" rx="20" fill="#dcfce7"/>
  <rect x="450" y="120" width="180" height="90" rx="20" fill="#fef3c7"/>
  <rect x="650" y="120" width="180" height="90" rx="20" fill="#fde2e2"/>
  <text x="75" y="155" font-family="Inter, Arial" font-size="22" font-weight="bold" fill="#1e293b">Conexões</text>
  <text x="275" y="155" font-family="Inter, Arial" font-size="22" font-weight="bold" fill="#1e293b">Requisições</text>
  <text x="475" y="155" font-family="Inter, Arial" font-size="22" font-weight="bold" fill="#1e293b">Uptime</text>
  <text x="675" y="155" font-family="Inter, Arial" font-size="22" font-weight="bold" fill="#1e293b">Erros</text>
  <text x="75" y="180" font-family="Inter, Arial" font-size="18" fill="#2563eb">45</text>
  <text x="275" y="180" font-family="Inter, Arial" font-size="18" fill="#16a34a">1247</text>
  <text x="475" y="180" font-family="Inter, Arial" font-size="18" fill="#ca8a04">99.8%</text>
  <text x="675" y="180" font-family="Inter, Arial" font-size="18" fill="#dc2626">0.02%</text>
  <rect x="50" y="240" width="780" height="160" rx="20" fill="#fff" stroke="#d1d5db" stroke-width="2"/>
  <text x="70" y="270" font-family="Inter, Arial" font-size="20" font-weight="bold" fill="#1e293b">Gráfico de Requisições</text>
  <polyline points="70,340 130,290 190,330 250,275 310,320 370,305 430,260 490,320 550,300 610,340 670,285 730,330" fill="none" stroke="#2563eb" stroke-width="4"/>
  <text x="50" y="430" font-family="Inter, Arial" font-size="22" font-weight="bold" fill="#1e293b">Atividades Recentes</text>
  <rect x="50" y="450" width="780" height="180" rx="12" fill="#fff" stroke="#d1d5db" stroke-width="2"/>
  <text x="75" y="480" font-family="Inter, Arial" font-size="18" font-weight="bold" fill="#334155">Tipo</text>
  <text x="225" y="480" font-family="Inter, Arial" font-size="18" font-weight="bold" fill="#334155">Usuário</text>
  <text x="435" y="480" font-family="Inter, Arial" font-size="18" font-weight="bold" fill="#334155">Data/Hora</text>
  <text x="670" y="480" font-family="Inter, Arial" font-size="18" font-weight="bold" fill="#334155">Status</text>
  <text x="75" y="510" font-family="Inter, Arial" font-size="16" fill="#1e293b">Login</text>
  <text x="225" y="510" font-family="Inter, Arial" font-size="16" fill="#1e293b">user@example.com</text>
  <text x="435" y="510" font-family="Inter, Arial" font-size="16" fill="#1e293b">2024-01-15 14:32</text>
  <rect x="670" y="495" width="90" height="25" rx="12" fill="#dcfce7"/>
  <text x="690" y="513" font-family="Inter, Arial" font-size="16" fill="#166534">Success</text>
  <text x="75" y="540" font-family="Inter, Arial" font-size="16" fill="#1e293b">API Call</text>
  <text x="225" y="540" font-family="Inter, Arial" font-size="16" fill="#1e293b">system</text>
  <text x="435" y="540" font-family="Inter, Arial" font-size="16" fill="#1e293b">2024-01-15 14:31</text>
  <rect x="670" y="525" width="90" height="25" rx="12" fill="#dcfce7"/>
  <text x="690" y="543" font-family="Inter, Arial" font-size="16" fill="#166534">Success</text>
  <text x="75" y="570" font-family="Inter, Arial" font-size="16" fill="#1e293b">Export</text>
  <text x="225" y="570" font-family="Inter, Arial" font-size="16" fill="#1e293b">admin@example.com</text>
  <text x="435" y="570" font-family="Inter, Arial" font-size="16" fill="#1e293b">2024-01-15 14:29</text>
  <rect x="670" y="555" width="90" height="25" rx="12" fill="#dcfce7"/>
  <text x="690" y="573" font-family="Inter, Arial" font-size="16" fill="#166534">Success</text>
  <text x="75" y="600" font-family="Inter, Arial" font-size="16" fill="#1e293b">Login</text>
  <text x="225" y="600" font-family="Inter, Arial" font-size="16" fill="#1e293b">test@example.com</text>
  <text x="435" y="600" font-family="Inter, Arial" font-size="16" fill="#1e293b">2024-01-15 14:25</text>
  <rect x="670" y="585" width="90" height="25" rx="12" fill="#fee2e2"/>
  <text x="690" y="603" font-family="Inter, Arial" font-size="16" fill="#dc2626">Failed</text>
</svg>